<svg width="90" height="31" viewBox="0 0 90 31" fill="none" xmlns="http://www.w3.org/2000/svg">
<path d="M30.1539 11L29.4293 8.62109H25.7857L25.0611 11H22.7779L26.3052 0.964844H28.8961L32.4371 11H30.1539ZM28.9234 6.84375L28.1988 4.51953C28.1532 4.36458 28.0917 4.16634 28.0142 3.9248C27.9413 3.67871 27.8661 3.43034 27.7886 3.17969C27.7157 2.92448 27.6565 2.70345 27.6109 2.5166C27.5653 2.70345 27.5015 2.93587 27.4195 3.21387C27.342 3.4873 27.2668 3.74707 27.1939 3.99316C27.121 4.23926 27.0686 4.41471 27.0367 4.51953L26.3189 6.84375H28.9234ZM36.2376 11.1367C35.3854 11.1367 34.6904 10.804 34.1526 10.1387C33.6194 9.46875 33.3528 8.48665 33.3528 7.19238C33.3528 5.88444 33.624 4.89551 34.1663 4.22559C34.7086 3.55111 35.4173 3.21387 36.2923 3.21387C36.6569 3.21387 36.9781 3.264 37.2561 3.36426C37.5341 3.46452 37.7734 3.59896 37.9739 3.76758C38.179 3.9362 38.3522 4.12533 38.4934 4.33496H38.5618C38.5345 4.18913 38.5003 3.97493 38.4593 3.69238C38.4228 3.40527 38.4046 3.11133 38.4046 2.81055V0.363281H40.4964V11H38.8968L38.4934 10.0088H38.4046C38.2724 10.2184 38.1061 10.4098 37.9055 10.583C37.7096 10.7516 37.4749 10.8861 37.2014 10.9863C36.928 11.0866 36.6067 11.1367 36.2376 11.1367ZM36.969 9.47559C37.5387 9.47559 37.9397 9.30697 38.1721 8.96973C38.4091 8.62793 38.5345 8.11523 38.5481 7.43164V7.20605C38.5481 6.46322 38.4342 5.89583 38.2063 5.50391C37.9785 5.10742 37.5546 4.90918 36.9348 4.90918C36.4746 4.90918 36.1145 5.10742 35.8548 5.50391C35.595 5.90039 35.4651 6.47233 35.4651 7.21973C35.4651 7.96712 35.595 8.52995 35.8548 8.9082C36.1191 9.28646 36.4905 9.47559 36.969 9.47559ZM49.9023 7.16504C49.9023 7.80306 49.8158 8.36816 49.6426 8.86035C49.474 9.35254 49.2256 9.76953 48.8975 10.1113C48.5739 10.4486 48.182 10.7038 47.7217 10.877C47.266 11.0501 46.751 11.1367 46.1768 11.1367C45.639 11.1367 45.1445 11.0501 44.6934 10.877C44.2467 10.7038 43.8571 10.4486 43.5244 10.1113C43.1963 9.76953 42.9411 9.35254 42.7588 8.86035C42.5811 8.36816 42.4922 7.80306 42.4922 7.16504C42.4922 6.31738 42.6426 5.59961 42.9434 5.01172C43.2441 4.42383 43.6725 3.97721 44.2285 3.67188C44.7845 3.36654 45.4476 3.21387 46.2178 3.21387C46.9333 3.21387 47.5667 3.36654 48.1182 3.67188C48.6742 3.97721 49.1094 4.42383 49.4238 5.01172C49.7428 5.59961 49.9023 6.31738 49.9023 7.16504ZM44.6182 7.16504C44.6182 7.66634 44.6729 8.08789 44.7822 8.42969C44.8916 8.77148 45.0625 9.02897 45.2949 9.20215C45.5273 9.37533 45.8304 9.46191 46.2041 9.46191C46.5732 9.46191 46.8717 9.37533 47.0996 9.20215C47.332 9.02897 47.5007 8.77148 47.6055 8.42969C47.7148 8.08789 47.7695 7.66634 47.7695 7.16504C47.7695 6.65918 47.7148 6.23991 47.6055 5.90723C47.5007 5.56999 47.332 5.31706 47.0996 5.14844C46.8672 4.97982 46.5641 4.89551 46.1904 4.89551C45.639 4.89551 45.238 5.08464 44.9873 5.46289C44.7412 5.84115 44.6182 6.40853 44.6182 7.16504ZM53.99 0.363281V2.83789C53.99 3.125 53.9808 3.40983 53.9626 3.69238C53.9489 3.97493 53.9307 4.19368 53.9079 4.34863H53.99C54.1905 4.03418 54.4639 3.76758 54.8103 3.54883C55.1566 3.32552 55.6055 3.21387 56.157 3.21387C57.0137 3.21387 57.7087 3.54883 58.2419 4.21875C58.7751 4.88867 59.0417 5.87077 59.0417 7.16504C59.0417 8.03548 58.9187 8.76693 58.6726 9.35938C58.4265 9.94727 58.0824 10.3916 57.6404 10.6924C57.1983 10.9886 56.6856 11.1367 56.1023 11.1367C55.5417 11.1367 55.0997 11.0365 54.7761 10.8359C54.4525 10.6354 54.1905 10.4098 53.99 10.1592H53.8464L53.4978 11H51.905V0.363281H53.99ZM55.487 4.88184C55.1224 4.88184 54.8331 4.95703 54.6189 5.10742C54.4047 5.25781 54.2474 5.4834 54.1472 5.78418C54.0515 6.08496 53.9991 6.46549 53.99 6.92578V7.15137C53.99 7.89421 54.0993 8.46387 54.3181 8.86035C54.5368 9.25228 54.9356 9.44824 55.5144 9.44824C55.9428 9.44824 56.2823 9.25 56.5329 8.85352C56.7881 8.45703 56.9157 7.88509 56.9157 7.1377C56.9157 6.3903 56.7881 5.82747 56.5329 5.44922C56.2777 5.07096 55.9291 4.88184 55.487 4.88184ZM64.1957 3.21387C64.9021 3.21387 65.5105 3.35059 66.0209 3.62402C66.5314 3.8929 66.9256 4.28483 67.2036 4.7998C67.4815 5.31478 67.6205 5.94368 67.6205 6.68652V7.69824H62.6918C62.7146 8.28613 62.8901 8.7487 63.2182 9.08594C63.5509 9.41862 64.0112 9.58496 64.5991 9.58496C65.0867 9.58496 65.5333 9.53483 65.9389 9.43457C66.3445 9.33431 66.7615 9.18392 67.1899 8.9834V10.5967C66.8116 10.7835 66.4151 10.9202 66.0004 11.0068C65.5903 11.0934 65.0912 11.1367 64.5034 11.1367C63.7377 11.1367 63.0587 10.9954 62.4662 10.7129C61.8784 10.4303 61.4158 9.99967 61.0786 9.4209C60.7459 8.84212 60.5795 8.11296 60.5795 7.2334C60.5795 6.34017 60.7299 5.59733 61.0307 5.00488C61.336 4.40788 61.7599 3.96126 62.3022 3.66504C62.8445 3.36426 63.4757 3.21387 64.1957 3.21387ZM64.2094 4.69727C63.8038 4.69727 63.4666 4.82715 63.1977 5.08691C62.9334 5.34668 62.7807 5.75456 62.7397 6.31055H65.6655C65.6609 6.00065 65.6039 5.72493 65.4946 5.4834C65.3898 5.24186 65.2302 5.05046 65.0161 4.90918C64.8064 4.7679 64.5375 4.69727 64.2094 4.69727ZM8.0098 30L7.28519 27.6211H3.64164L2.91703 30H0.633827L4.16117 19.9648H6.75199L10.293 30H8.0098ZM6.77934 25.8438L6.05473 23.5195C6.00915 23.3646 5.94763 23.1663 5.87016 22.9248C5.79724 22.6787 5.72204 22.4303 5.64457 22.1797C5.57165 21.9245 5.51241 21.7035 5.46684 21.5166C5.42126 21.7035 5.35746 21.9359 5.27543 22.2139C5.19795 22.4873 5.12276 22.7471 5.04984 22.9932C4.97693 23.2393 4.92452 23.4147 4.89262 23.5195L4.17484 25.8438H6.77934ZM15.8982 23.9229H14.0935V30H12.0086V23.9229H10.8601V22.918L12.0086 22.3574V21.7969C12.0086 21.1452 12.1179 20.6393 12.3367 20.2793C12.56 19.9147 12.8722 19.6595 13.2732 19.5137C13.6788 19.3633 14.1573 19.2881 14.7087 19.2881C15.1143 19.2881 15.4835 19.3223 15.8162 19.3906C16.1489 19.4544 16.42 19.5273 16.6296 19.6094L16.0964 21.1406C15.9369 21.0905 15.7638 21.0449 15.5769 21.0039C15.3901 20.9629 15.1759 20.9424 14.9343 20.9424C14.6427 20.9424 14.4285 21.0312 14.2918 21.209C14.1596 21.3822 14.0935 21.6055 14.0935 21.8789V22.3574H15.8982V23.9229ZM20.6011 28.4756C20.8289 28.4756 21.0499 28.4528 21.2641 28.4072C21.4829 28.3617 21.6994 28.3047 21.9136 28.2363V29.7881C21.6902 29.8883 21.4123 29.9704 21.0796 30.0342C20.7514 30.1025 20.3914 30.1367 19.9995 30.1367C19.5438 30.1367 19.1336 30.0638 18.769 29.918C18.409 29.7676 18.1242 29.5101 17.9145 29.1455C17.7095 28.7764 17.6069 28.2637 17.6069 27.6074V23.9229H16.6089V23.041L17.7573 22.3438L18.3589 20.7305H19.6919V22.3574H21.8315V23.9229H19.6919V27.6074C19.6919 27.8991 19.7739 28.1178 19.938 28.2637C20.1066 28.4049 20.3276 28.4756 20.6011 28.4756ZM26.8967 22.2139C27.6031 22.2139 28.2115 22.3506 28.7219 22.624C29.2323 22.8929 29.6265 23.2848 29.9045 23.7998C30.1825 24.3148 30.3215 24.9437 30.3215 25.6865V26.6982H25.3928C25.4156 27.2861 25.591 27.7487 25.9191 28.0859C26.2518 28.4186 26.7121 28.585 27.3 28.585C27.7876 28.585 28.2342 28.5348 28.6398 28.4346C29.0454 28.3343 29.4624 28.1839 29.8908 27.9834V29.5967C29.5126 29.7835 29.1161 29.9202 28.7014 30.0068C28.2912 30.0934 27.7922 30.1367 27.2043 30.1367C26.4387 30.1367 25.7596 29.9954 25.1672 29.7129C24.5793 29.4303 24.1167 28.9997 23.7795 28.4209C23.4468 27.8421 23.2805 27.113 23.2805 26.2334C23.2805 25.3402 23.4309 24.5973 23.7316 24.0049C24.037 23.4079 24.4608 22.9613 25.0031 22.665C25.5454 22.3643 26.1766 22.2139 26.8967 22.2139ZM26.9104 23.6973C26.5048 23.6973 26.1675 23.8271 25.8986 24.0869C25.6343 24.3467 25.4816 24.7546 25.4406 25.3105H28.3664C28.3618 25.0007 28.3049 24.7249 28.1955 24.4834C28.0907 24.2419 27.9312 24.0505 27.717 23.9092C27.5074 23.7679 27.2385 23.6973 26.9104 23.6973ZM36.5624 22.2139C36.6672 22.2139 36.788 22.2207 36.9247 22.2344C37.066 22.2435 37.1799 22.2572 37.2665 22.2754L37.1093 24.2305C37.0409 24.2077 36.943 24.1917 36.8154 24.1826C36.6923 24.1689 36.5852 24.1621 36.4941 24.1621C36.2252 24.1621 35.9631 24.1963 35.7079 24.2646C35.4573 24.333 35.2317 24.4447 35.0312 24.5996C34.8307 24.75 34.6711 24.9505 34.5527 25.2012C34.4387 25.4473 34.3818 25.7503 34.3818 26.1104V30H32.2968V22.3574H33.8759L34.1835 23.6426H34.2861C34.4364 23.3828 34.6233 23.1458 34.8466 22.9316C35.0745 22.7129 35.332 22.5397 35.6191 22.4121C35.9107 22.2799 36.2252 22.2139 36.5624 22.2139ZM48.7709 30H43.015V20.0059H48.7709V21.7422H45.1341V23.9365H48.5179V25.6729H45.1341V28.25H48.7709V30ZM55.2032 23.9229H53.3985V30H51.3136V23.9229H50.1651V22.918L51.3136 22.3574V21.7969C51.3136 21.1452 51.4229 20.6393 51.6417 20.2793C51.865 19.9147 52.1772 19.6595 52.5782 19.5137C52.9838 19.3633 53.4623 19.2881 54.0137 19.2881C54.4193 19.2881 54.7885 19.3223 55.1212 19.3906C55.4539 19.4544 55.725 19.5273 55.9346 19.6094L55.4014 21.1406C55.2419 21.0905 55.0688 21.0449 54.8819 21.0039C54.6951 20.9629 54.4809 20.9424 54.2393 20.9424C53.9477 20.9424 53.7335 21.0312 53.5968 21.209C53.4646 21.3822 53.3985 21.6055 53.3985 21.8789V22.3574H55.2032V23.9229ZM60.6241 23.9229H58.8194V30H56.7345V23.9229H55.586V22.918L56.7345 22.3574V21.7969C56.7345 21.1452 56.8438 20.6393 57.0626 20.2793C57.2859 19.9147 57.5981 19.6595 57.9991 19.5137C58.4047 19.3633 58.8832 19.2881 59.4346 19.2881C59.8402 19.2881 60.2094 19.3223 60.5421 19.3906C60.8748 19.4544 61.1459 19.5273 61.3555 19.6094L60.8223 21.1406C60.6628 21.0905 60.4897 21.0449 60.3028 21.0039C60.116 20.9629 59.9018 20.9424 59.6602 20.9424C59.3686 20.9424 59.1544 21.0312 59.0177 21.209C58.8855 21.3822 58.8194 21.6055 58.8194 21.8789V22.3574H60.6241V23.9229ZM65.2518 22.2139C65.9581 22.2139 66.5665 22.3506 67.077 22.624C67.5874 22.8929 67.9816 23.2848 68.2596 23.7998C68.5376 24.3148 68.6766 24.9437 68.6766 25.6865V26.6982H63.7479C63.7706 27.2861 63.9461 27.7487 64.2742 28.0859C64.6069 28.4186 65.0672 28.585 65.6551 28.585C66.1427 28.585 66.5893 28.5348 66.9949 28.4346C67.4005 28.3343 67.8175 28.1839 68.2459 27.9834V29.5967C67.8676 29.7835 67.4712 29.9202 67.0564 30.0068C66.6463 30.0934 66.1473 30.1367 65.5594 30.1367C64.7938 30.1367 64.1147 29.9954 63.5223 29.7129C62.9344 29.4303 62.4718 28.9997 62.1346 28.4209C61.8019 27.8421 61.6355 27.113 61.6355 26.2334C61.6355 25.3402 61.7859 24.5973 62.0867 24.0049C62.3921 23.4079 62.8159 22.9613 63.3582 22.665C63.9005 22.3643 64.5317 22.2139 65.2518 22.2139ZM65.2654 23.6973C64.8598 23.6973 64.5226 23.8271 64.2537 24.0869C63.9894 24.3467 63.8367 24.7546 63.7957 25.3105H66.7215C66.7169 25.0007 66.66 24.7249 66.5506 24.4834C66.4458 24.2419 66.2863 24.0505 66.0721 23.9092C65.8624 23.7679 65.5936 23.6973 65.2654 23.6973ZM73.7554 30.1367C72.9989 30.1367 72.354 30 71.8208 29.7266C71.2876 29.4486 70.882 29.0202 70.604 28.4414C70.326 27.8626 70.187 27.1221 70.187 26.2197C70.187 25.2855 70.3443 24.5244 70.6587 23.9365C70.9777 23.3441 71.4175 22.9089 71.978 22.6309C72.5431 22.3529 73.1971 22.2139 73.94 22.2139C74.4686 22.2139 74.9243 22.2663 75.3071 22.3711C75.6945 22.4714 76.0318 22.5921 76.3189 22.7334L75.7036 24.3467C75.3755 24.2145 75.0702 24.1074 74.7876 24.0254C74.5051 23.9388 74.2225 23.8955 73.94 23.8955C73.5754 23.8955 73.2723 23.9821 73.0308 24.1553C72.7892 24.3239 72.6092 24.5791 72.4907 24.9209C72.3722 25.2627 72.313 25.6911 72.313 26.2061C72.313 26.7119 72.3768 27.1312 72.5044 27.4639C72.632 27.7965 72.8166 28.0449 73.0581 28.209C73.2997 28.3685 73.5936 28.4482 73.94 28.4482C74.3729 28.4482 74.758 28.3913 75.0952 28.2773C75.4325 28.1589 75.7606 27.9948 76.0796 27.7852V29.5693C75.7606 29.7699 75.4256 29.9134 75.0747 30C74.7284 30.0911 74.2886 30.1367 73.7554 30.1367ZM81.3567 28.4756C81.5845 28.4756 81.8056 28.4528 82.0198 28.4072C82.2385 28.3617 82.455 28.3047 82.6692 28.2363V29.7881C82.4459 29.8883 82.1679 29.9704 81.8352 30.0342C81.5071 30.1025 81.147 30.1367 80.7551 30.1367C80.2994 30.1367 79.8892 30.0638 79.5247 29.918C79.1646 29.7676 78.8798 29.5101 78.6702 29.1455C78.4651 28.7764 78.3625 28.2637 78.3625 27.6074V23.9229H77.3645V23.041L78.5129 22.3438L79.1145 20.7305H80.4475V22.3574H82.5872V23.9229H80.4475V27.6074C80.4475 27.8991 80.5295 28.1178 80.6936 28.2637C80.8622 28.4049 81.0832 28.4756 81.3567 28.4756ZM89.833 27.7305C89.833 28.25 89.7099 28.6898 89.4638 29.0498C89.2223 29.4053 88.86 29.6764 88.3769 29.8633C87.8938 30.0456 87.2923 30.1367 86.5722 30.1367C86.039 30.1367 85.581 30.1025 85.1982 30.0342C84.8199 29.9658 84.4371 29.8519 84.0498 29.6924V27.9697C84.4645 28.1566 84.9088 28.3115 85.3828 28.4346C85.8613 28.5531 86.2806 28.6123 86.6406 28.6123C87.0462 28.6123 87.3356 28.5531 87.5088 28.4346C87.6865 28.3115 87.7754 28.152 87.7754 27.9561C87.7754 27.8285 87.7389 27.7145 87.666 27.6143C87.5976 27.5094 87.4472 27.3932 87.2148 27.2656C86.9824 27.1335 86.6178 26.9626 86.1211 26.7529C85.6425 26.5524 85.2483 26.3496 84.9384 26.1445C84.6331 25.9395 84.4052 25.6979 84.2548 25.4199C84.109 25.1374 84.0361 24.7796 84.0361 24.3467C84.0361 23.6403 84.3095 23.1094 84.8564 22.7539C85.4078 22.3939 86.1438 22.2139 87.0644 22.2139C87.5384 22.2139 87.9895 22.2617 88.4179 22.3574C88.8509 22.4531 89.2952 22.6058 89.7509 22.8154L89.122 24.3193C88.7438 24.1553 88.386 24.0208 88.0488 23.916C87.7161 23.8112 87.3766 23.7588 87.0302 23.7588C86.7249 23.7588 86.4948 23.7998 86.3398 23.8818C86.1849 23.9639 86.1074 24.0892 86.1074 24.2578C86.1074 24.3809 86.1461 24.4902 86.2236 24.5859C86.3056 24.6816 86.4606 24.7887 86.6884 24.9072C86.9209 25.0212 87.2604 25.1693 87.707 25.3516C88.1399 25.5293 88.5159 25.7161 88.8349 25.9121C89.1539 26.1035 89.4 26.3428 89.5732 26.6299C89.7464 26.9124 89.833 27.2793 89.833 27.7305Z" fill="#828282"/>
</svg>
