<svg width="74" height="31" viewBox="0 0 74 31" fill="none" xmlns="http://www.w3.org/2000/svg">
<path d="M21.1539 11L20.4293 8.62109H16.7857L16.0611 11H13.7779L17.3052 0.964844H19.8961L23.4371 11H21.1539ZM19.9234 6.84375L19.1988 4.51953C19.1532 4.36458 19.0917 4.16634 19.0142 3.9248C18.9413 3.67871 18.8661 3.43034 18.7886 3.17969C18.7157 2.92448 18.6565 2.70345 18.6109 2.5166C18.5653 2.70345 18.5015 2.93587 18.4195 3.21387C18.342 3.4873 18.2668 3.74707 18.1939 3.99316C18.121 4.23926 18.0686 4.41471 18.0367 4.51953L17.3189 6.84375H19.9234ZM27.2376 11.1367C26.3854 11.1367 25.6904 10.804 25.1526 10.1387C24.6194 9.46875 24.3528 8.48665 24.3528 7.19238C24.3528 5.88444 24.624 4.89551 25.1663 4.22559C25.7086 3.55111 26.4173 3.21387 27.2923 3.21387C27.6569 3.21387 27.9781 3.264 28.2561 3.36426C28.5341 3.46452 28.7734 3.59896 28.9739 3.76758C29.179 3.9362 29.3522 4.12533 29.4934 4.33496H29.5618C29.5345 4.18913 29.5003 3.97493 29.4593 3.69238C29.4228 3.40527 29.4046 3.11133 29.4046 2.81055V0.363281H31.4964V11H29.8968L29.4934 10.0088H29.4046C29.2724 10.2184 29.1061 10.4098 28.9055 10.583C28.7096 10.7516 28.4749 10.8861 28.2014 10.9863C27.928 11.0866 27.6067 11.1367 27.2376 11.1367ZM27.969 9.47559C28.5387 9.47559 28.9397 9.30697 29.1721 8.96973C29.4091 8.62793 29.5345 8.11523 29.5481 7.43164V7.20605C29.5481 6.46322 29.4342 5.89583 29.2063 5.50391C28.9785 5.10742 28.5546 4.90918 27.9348 4.90918C27.4746 4.90918 27.1145 5.10742 26.8548 5.50391C26.595 5.90039 26.4651 6.47233 26.4651 7.21973C26.4651 7.96712 26.595 8.52995 26.8548 8.9082C27.1191 9.28646 27.4905 9.47559 27.969 9.47559ZM40.9023 7.16504C40.9023 7.80306 40.8158 8.36816 40.6426 8.86035C40.474 9.35254 40.2256 9.76953 39.8975 10.1113C39.5739 10.4486 39.182 10.7038 38.7217 10.877C38.266 11.0501 37.751 11.1367 37.1768 11.1367C36.639 11.1367 36.1445 11.0501 35.6934 10.877C35.2467 10.7038 34.8571 10.4486 34.5244 10.1113C34.1963 9.76953 33.9411 9.35254 33.7588 8.86035C33.5811 8.36816 33.4922 7.80306 33.4922 7.16504C33.4922 6.31738 33.6426 5.59961 33.9434 5.01172C34.2441 4.42383 34.6725 3.97721 35.2285 3.67188C35.7845 3.36654 36.4476 3.21387 37.2178 3.21387C37.9333 3.21387 38.5667 3.36654 39.1182 3.67188C39.6742 3.97721 40.1094 4.42383 40.4238 5.01172C40.7428 5.59961 40.9023 6.31738 40.9023 7.16504ZM35.6182 7.16504C35.6182 7.66634 35.6729 8.08789 35.7822 8.42969C35.8916 8.77148 36.0625 9.02897 36.2949 9.20215C36.5273 9.37533 36.8304 9.46191 37.2041 9.46191C37.5732 9.46191 37.8717 9.37533 38.0996 9.20215C38.332 9.02897 38.5007 8.77148 38.6055 8.42969C38.7148 8.08789 38.7695 7.66634 38.7695 7.16504C38.7695 6.65918 38.7148 6.23991 38.6055 5.90723C38.5007 5.56999 38.332 5.31706 38.0996 5.14844C37.8672 4.97982 37.5641 4.89551 37.1904 4.89551C36.639 4.89551 36.238 5.08464 35.9873 5.46289C35.7412 5.84115 35.6182 6.40853 35.6182 7.16504ZM44.99 0.363281V2.83789C44.99 3.125 44.9808 3.40983 44.9626 3.69238C44.9489 3.97493 44.9307 4.19368 44.9079 4.34863H44.99C45.1905 4.03418 45.4639 3.76758 45.8103 3.54883C46.1566 3.32552 46.6055 3.21387 47.157 3.21387C48.0137 3.21387 48.7087 3.54883 49.2419 4.21875C49.7751 4.88867 50.0417 5.87077 50.0417 7.16504C50.0417 8.03548 49.9187 8.76693 49.6726 9.35938C49.4265 9.94727 49.0824 10.3916 48.6404 10.6924C48.1983 10.9886 47.6856 11.1367 47.1023 11.1367C46.5417 11.1367 46.0997 11.0365 45.7761 10.8359C45.4525 10.6354 45.1905 10.4098 44.99 10.1592H44.8464L44.4978 11H42.905V0.363281H44.99ZM46.487 4.88184C46.1224 4.88184 45.8331 4.95703 45.6189 5.10742C45.4047 5.25781 45.2474 5.4834 45.1472 5.78418C45.0515 6.08496 44.9991 6.46549 44.99 6.92578V7.15137C44.99 7.89421 45.0993 8.46387 45.3181 8.86035C45.5368 9.25228 45.9356 9.44824 46.5144 9.44824C46.9428 9.44824 47.2823 9.25 47.5329 8.85352C47.7881 8.45703 47.9157 7.88509 47.9157 7.1377C47.9157 6.3903 47.7881 5.82747 47.5329 5.44922C47.2777 5.07096 46.9291 4.88184 46.487 4.88184ZM55.1957 3.21387C55.9021 3.21387 56.5105 3.35059 57.0209 3.62402C57.5314 3.8929 57.9256 4.28483 58.2036 4.7998C58.4815 5.31478 58.6205 5.94368 58.6205 6.68652V7.69824H53.6918C53.7146 8.28613 53.8901 8.7487 54.2182 9.08594C54.5509 9.41862 55.0112 9.58496 55.5991 9.58496C56.0867 9.58496 56.5333 9.53483 56.9389 9.43457C57.3445 9.33431 57.7615 9.18392 58.1899 8.9834V10.5967C57.8116 10.7835 57.4151 10.9202 57.0004 11.0068C56.5903 11.0934 56.0912 11.1367 55.5034 11.1367C54.7377 11.1367 54.0587 10.9954 53.4662 10.7129C52.8784 10.4303 52.4158 9.99967 52.0786 9.4209C51.7459 8.84212 51.5795 8.11296 51.5795 7.2334C51.5795 6.34017 51.7299 5.59733 52.0307 5.00488C52.336 4.40788 52.7599 3.96126 53.3022 3.66504C53.8445 3.36426 54.4757 3.21387 55.1957 3.21387ZM55.2094 4.69727C54.8038 4.69727 54.4666 4.82715 54.1977 5.08691C53.9334 5.34668 53.7807 5.75456 53.7397 6.31055H56.6655C56.6609 6.00065 56.6039 5.72493 56.4946 5.4834C56.3898 5.24186 56.2302 5.05046 56.0161 4.90918C55.8064 4.7679 55.5375 4.69727 55.2094 4.69727ZM0.674217 30V20.0059H2.79336V30H0.674217ZM7.50988 30H5.42492V19.3633H7.50988V30ZM12.0692 30H9.98422V19.3633H12.0692V30ZM21.5572 22.3574V30H19.9576L19.6773 29.0225H19.5679C19.4039 29.2822 19.1988 29.4941 18.9527 29.6582C18.7066 29.8223 18.4354 29.943 18.1392 30.0205C17.843 30.098 17.5354 30.1367 17.2164 30.1367C16.6695 30.1367 16.1933 30.041 15.7877 29.8496C15.3821 29.6536 15.0653 29.3506 14.8375 28.9404C14.6142 28.5303 14.5025 27.9971 14.5025 27.3408V22.3574H16.5875V26.8213C16.5875 27.3682 16.6854 27.7806 16.8814 28.0586C17.0774 28.3366 17.3895 28.4756 17.8179 28.4756C18.2418 28.4756 18.5744 28.3799 18.816 28.1885C19.0575 27.9925 19.2261 27.7077 19.3218 27.334C19.4221 26.9557 19.4722 26.4954 19.4722 25.9531V22.3574H21.5572ZM29.3567 27.7305C29.3567 28.25 29.2337 28.6898 28.9876 29.0498C28.746 29.4053 28.3837 29.6764 27.9007 29.8633C27.4176 30.0456 26.816 30.1367 26.096 30.1367C25.5628 30.1367 25.1048 30.1025 24.722 30.0342C24.3437 29.9658 23.9609 29.8519 23.5735 29.6924V27.9697C23.9882 28.1566 24.4326 28.3115 24.9065 28.4346C25.385 28.5531 25.8043 28.6123 26.1643 28.6123C26.5699 28.6123 26.8593 28.5531 27.0325 28.4346C27.2102 28.3115 27.2991 28.152 27.2991 27.9561C27.2991 27.8285 27.2626 27.7145 27.1897 27.6143C27.1214 27.5094 26.971 27.3932 26.7386 27.2656C26.5061 27.1335 26.1415 26.9626 25.6448 26.7529C25.1663 26.5524 24.7721 26.3496 24.4622 26.1445C24.1568 25.9395 23.929 25.6979 23.7786 25.4199C23.6328 25.1374 23.5598 24.7796 23.5598 24.3467C23.5598 23.6403 23.8333 23.1094 24.3802 22.7539C24.9316 22.3939 25.6676 22.2139 26.5882 22.2139C27.0621 22.2139 27.5133 22.2617 27.9417 22.3574C28.3746 22.4531 28.819 22.6058 29.2747 22.8154L28.6458 24.3193C28.2675 24.1553 27.9098 24.0208 27.5725 23.916C27.2399 23.8112 26.9003 23.7588 26.554 23.7588C26.2486 23.7588 26.0185 23.7998 25.8636 23.8818C25.7086 23.9639 25.6311 24.0892 25.6311 24.2578C25.6311 24.3809 25.6699 24.4902 25.7473 24.5859C25.8294 24.6816 25.9843 24.7887 26.2122 24.9072C26.4446 25.0212 26.7841 25.1693 27.2307 25.3516C27.6637 25.5293 28.0397 25.7161 28.3587 25.9121C28.6777 26.1035 28.9238 26.3428 29.097 26.6299C29.2701 26.9124 29.3567 27.2793 29.3567 27.7305ZM34.4834 28.4756C34.7113 28.4756 34.9323 28.4528 35.1465 28.4072C35.3652 28.3617 35.5817 28.3047 35.7959 28.2363V29.7881C35.5726 29.8883 35.2946 29.9704 34.9619 30.0342C34.6338 30.1025 34.2738 30.1367 33.8818 30.1367C33.4261 30.1367 33.0159 30.0638 32.6514 29.918C32.2913 29.7676 32.0065 29.5101 31.7969 29.1455C31.5918 28.7764 31.4893 28.2637 31.4893 27.6074V23.9229H30.4912V23.041L31.6396 22.3438L32.2412 20.7305H33.5742V22.3574H35.7139V23.9229H33.5742V27.6074C33.5742 27.8991 33.6562 28.1178 33.8203 28.2637C33.9889 28.4049 34.21 28.4756 34.4834 28.4756ZM41.8933 22.2139C41.9981 22.2139 42.1189 22.2207 42.2556 22.2344C42.3969 22.2435 42.5108 22.2572 42.5974 22.2754L42.4402 24.2305C42.3718 24.2077 42.2738 24.1917 42.1462 24.1826C42.0232 24.1689 41.9161 24.1621 41.8249 24.1621C41.556 24.1621 41.294 24.1963 41.0388 24.2646C40.7881 24.333 40.5626 24.4447 40.362 24.5996C40.1615 24.75 40.002 24.9505 39.8835 25.2012C39.7696 25.4473 39.7126 25.7503 39.7126 26.1104V30H37.6277V22.3574H39.2068L39.5144 23.6426H39.6169C39.7673 23.3828 39.9542 23.1458 40.1775 22.9316C40.4053 22.7129 40.6628 22.5397 40.9499 22.4121C41.2416 22.2799 41.556 22.2139 41.8933 22.2139ZM47.3959 22.2002C48.4213 22.2002 49.2075 22.4235 49.7543 22.8701C50.3012 23.3167 50.5746 23.9958 50.5746 24.9072V30H49.1186L48.7153 28.9609H48.6606C48.4418 29.2344 48.2185 29.4577 47.9907 29.6309C47.7628 29.804 47.5008 29.9316 47.2045 30.0137C46.9083 30.0957 46.5483 30.1367 46.1245 30.1367C45.6733 30.1367 45.2677 30.0501 44.9077 29.877C44.5522 29.7038 44.2719 29.4395 44.0668 29.084C43.8618 28.724 43.7592 28.2682 43.7592 27.7168C43.7592 26.9056 44.044 26.3086 44.6137 25.9258C45.1834 25.5384 46.0379 25.3242 47.1772 25.2832L48.5034 25.2422V24.9072C48.5034 24.5062 48.3985 24.2122 48.1889 24.0254C47.9793 23.8385 47.6876 23.7451 47.3139 23.7451C46.9448 23.7451 46.5825 23.7975 46.227 23.9023C45.8715 24.0072 45.5161 24.1393 45.1606 24.2988L44.4702 22.8906C44.8758 22.6764 45.3292 22.5078 45.8305 22.3848C46.3364 22.2617 46.8582 22.2002 47.3959 22.2002ZM48.5034 26.459L47.6967 26.4863C47.0222 26.5046 46.5528 26.6253 46.2885 26.8486C46.0287 27.0719 45.8989 27.3659 45.8989 27.7305C45.8989 28.0495 45.9923 28.2773 46.1791 28.4141C46.366 28.5462 46.6098 28.6123 46.9106 28.6123C47.3572 28.6123 47.7332 28.4801 48.0385 28.2158C48.3484 27.9515 48.5034 27.5755 48.5034 27.0879V26.459ZM56.2277 28.4756C56.4556 28.4756 56.6766 28.4528 56.8908 28.4072C57.1095 28.3617 57.326 28.3047 57.5402 28.2363V29.7881C57.3169 29.8883 57.0389 29.9704 56.7062 30.0342C56.3781 30.1025 56.0181 30.1367 55.6261 30.1367C55.1704 30.1367 54.7602 30.0638 54.3957 29.918C54.0356 29.7676 53.7508 29.5101 53.5412 29.1455C53.3361 28.7764 53.2336 28.2637 53.2336 27.6074V23.9229H52.2355V23.041L53.3839 22.3438L53.9855 20.7305H55.3185V22.3574H57.4582V23.9229H55.3185V27.6074C55.3185 27.8991 55.4005 28.1178 55.5646 28.2637C55.7332 28.4049 55.9543 28.4756 56.2277 28.4756ZM66.3173 26.165C66.3173 26.8031 66.2307 27.3682 66.0575 27.8604C65.8889 28.3525 65.6405 28.7695 65.3124 29.1113C64.9888 29.4486 64.5969 29.7038 64.1366 29.877C63.6809 30.0501 63.1659 30.1367 62.5917 30.1367C62.0539 30.1367 61.5595 30.0501 61.1083 29.877C60.6617 29.7038 60.272 29.4486 59.9393 29.1113C59.6112 28.7695 59.356 28.3525 59.1737 27.8604C58.996 27.3682 58.9071 26.8031 58.9071 26.165C58.9071 25.3174 59.0575 24.5996 59.3583 24.0117C59.6591 23.4238 60.0874 22.9772 60.6434 22.6719C61.1994 22.3665 61.8625 22.2139 62.6327 22.2139C63.3482 22.2139 63.9817 22.3665 64.5331 22.6719C65.0891 22.9772 65.5243 23.4238 65.8387 24.0117C66.1578 24.5996 66.3173 25.3174 66.3173 26.165ZM61.0331 26.165C61.0331 26.6663 61.0878 27.0879 61.1971 27.4297C61.3065 27.7715 61.4774 28.029 61.7098 28.2021C61.9423 28.3753 62.2453 28.4619 62.619 28.4619C62.9882 28.4619 63.2867 28.3753 63.5145 28.2021C63.747 28.029 63.9156 27.7715 64.0204 27.4297C64.1298 27.0879 64.1845 26.6663 64.1845 26.165C64.1845 25.6592 64.1298 25.2399 64.0204 24.9072C63.9156 24.57 63.747 24.3171 63.5145 24.1484C63.2821 23.9798 62.979 23.8955 62.6054 23.8955C62.0539 23.8955 61.6529 24.0846 61.4022 24.4629C61.1561 24.8411 61.0331 25.4085 61.0331 26.165ZM72.5855 22.2139C72.6904 22.2139 72.8111 22.2207 72.9479 22.2344C73.0891 22.2435 73.2031 22.2572 73.2896 22.2754L73.1324 24.2305C73.0641 24.2077 72.9661 24.1917 72.8385 24.1826C72.7154 24.1689 72.6083 24.1621 72.5172 24.1621C72.2483 24.1621 71.9863 24.1963 71.7311 24.2646C71.4804 24.333 71.2548 24.4447 71.0543 24.5996C70.8538 24.75 70.6943 24.9505 70.5758 25.2012C70.4619 25.4473 70.4049 25.7503 70.4049 26.1104V30H68.3199V22.3574H69.899L70.2066 23.6426H70.3092C70.4596 23.3828 70.6464 23.1458 70.8697 22.9316C71.0976 22.7129 71.3551 22.5397 71.6422 22.4121C71.9339 22.2799 72.2483 22.2139 72.5855 22.2139Z" fill="#828282"/>
</svg>
