<svg width="42" height="15" viewBox="0 0 42 15" fill="none" xmlns="http://www.w3.org/2000/svg">
<path d="M2.23492 11H0.149961V1.00586H5.87848V2.74219H2.23492V5.31934H5.62555V7.04883H2.23492V11ZM10.0345 3.35742V11H7.94949V3.35742H10.0345ZM8.99539 0.363281C9.30529 0.363281 9.57189 0.436198 9.7952 0.582031C10.0185 0.723307 10.1302 0.989909 10.1302 1.38184C10.1302 1.76921 10.0185 2.03809 9.7952 2.18848C9.57189 2.33431 9.30529 2.40723 8.99539 2.40723C8.68094 2.40723 8.41206 2.33431 8.18875 2.18848C7.97 2.03809 7.86063 1.76921 7.86063 1.38184C7.86063 0.989909 7.97 0.723307 8.18875 0.582031C8.41206 0.436198 8.68094 0.363281 8.99539 0.363281ZM14.7441 14.3633C13.6777 14.3633 12.862 14.1764 12.2969 13.8027C11.7363 13.4336 11.4561 12.9141 11.4561 12.2441C11.4561 11.7839 11.5996 11.3988 11.8867 11.0889C12.1738 10.779 12.5954 10.5579 13.1514 10.4258C12.9372 10.3346 12.7503 10.1865 12.5908 9.98145C12.4313 9.77181 12.3516 9.55078 12.3516 9.31836C12.3516 9.02669 12.4359 8.78516 12.6045 8.59375C12.7731 8.39779 13.0169 8.20638 13.3359 8.01953C12.9349 7.84635 12.6159 7.56836 12.3789 7.18555C12.1465 6.80273 12.0303 6.35156 12.0303 5.83203C12.0303 5.27604 12.151 4.80436 12.3926 4.41699C12.6387 4.02507 12.9941 3.72656 13.459 3.52148C13.9284 3.31641 14.498 3.21387 15.168 3.21387C15.3092 3.21387 15.4733 3.22298 15.6602 3.24121C15.847 3.25944 16.0179 3.27995 16.1729 3.30273C16.3324 3.32552 16.4395 3.34375 16.4941 3.35742H19.1602V4.41699L17.9639 4.72461C18.0732 4.89323 18.1553 5.07324 18.21 5.26465C18.2646 5.45605 18.292 5.65885 18.292 5.87305C18.292 6.69336 18.0049 7.33366 17.4307 7.79395C16.861 8.24967 16.068 8.47754 15.0518 8.47754C14.8102 8.46387 14.5824 8.44564 14.3682 8.42285C14.2633 8.50488 14.1836 8.59147 14.1289 8.68262C14.0742 8.77376 14.0469 8.86947 14.0469 8.96973C14.0469 9.06999 14.0879 9.1543 14.1699 9.22266C14.2565 9.28646 14.3841 9.33659 14.5527 9.37305C14.7259 9.40495 14.9401 9.4209 15.1953 9.4209H16.4941C17.3327 9.4209 17.9707 9.60091 18.4082 9.96094C18.8503 10.321 19.0713 10.8496 19.0713 11.5469C19.0713 12.4401 18.6976 13.1328 17.9502 13.625C17.2074 14.1172 16.1387 14.3633 14.7441 14.3633ZM14.833 13.0029C15.3298 13.0029 15.7559 12.9551 16.1113 12.8594C16.4714 12.7682 16.7471 12.6361 16.9385 12.4629C17.1299 12.2943 17.2256 12.0915 17.2256 11.8545C17.2256 11.6631 17.1686 11.5104 17.0547 11.3965C16.9453 11.2871 16.7767 11.2096 16.5488 11.1641C16.3255 11.1185 16.0384 11.0957 15.6875 11.0957H14.6074C14.3522 11.0957 14.1221 11.1367 13.917 11.2188C13.7165 11.3008 13.557 11.4147 13.4385 11.5605C13.32 11.7109 13.2607 11.8841 13.2607 12.0801C13.2607 12.3672 13.3975 12.5928 13.6709 12.7568C13.9489 12.9209 14.3363 13.0029 14.833 13.0029ZM15.168 7.20605C15.5599 7.20605 15.847 7.08529 16.0293 6.84375C16.2116 6.60221 16.3027 6.27409 16.3027 5.85938C16.3027 5.39909 16.207 5.05501 16.0156 4.82715C15.8288 4.59473 15.5462 4.47852 15.168 4.47852C14.7852 4.47852 14.498 4.59473 14.3066 4.82715C14.1152 5.05501 14.0195 5.39909 14.0195 5.85938C14.0195 6.27409 14.113 6.60221 14.2998 6.84375C14.4912 7.08529 14.7806 7.20605 15.168 7.20605ZM29.6804 3.21387C30.5463 3.21387 31.2002 3.43717 31.6423 3.88379C32.0889 4.32585 32.3122 5.03678 32.3122 6.0166V11H30.2204V6.53613C30.2204 5.98926 30.127 5.57682 29.9402 5.29883C29.7533 5.02083 29.4639 4.88184 29.072 4.88184C28.5206 4.88184 28.1286 5.08008 27.8962 5.47656C27.6638 5.86849 27.5476 6.43132 27.5476 7.16504V11H25.4626V6.53613C25.4626 6.17155 25.4216 5.86621 25.3396 5.62012C25.2575 5.37402 25.1322 5.18945 24.9636 5.06641C24.795 4.94336 24.5785 4.88184 24.3142 4.88184C23.9268 4.88184 23.6215 4.97982 23.3982 5.17578C23.1794 5.36719 23.0222 5.65202 22.9265 6.03027C22.8353 6.40397 22.7898 6.86198 22.7898 7.4043V11H20.7048V3.35742H22.2976L22.5779 4.33496H22.6941C22.849 4.07064 23.0427 3.85645 23.2751 3.69238C23.5121 3.52832 23.7719 3.40755 24.0544 3.33008C24.337 3.2526 24.6241 3.21387 24.9157 3.21387C25.4763 3.21387 25.9502 3.30501 26.3376 3.4873C26.7295 3.6696 27.0303 3.95215 27.24 4.33496H27.4245C27.6524 3.94303 27.9737 3.6582 28.3884 3.48047C28.8077 3.30273 29.2383 3.21387 29.6804 3.21387ZM37.8696 3.2002C38.895 3.2002 39.6811 3.4235 40.228 3.87012C40.7748 4.31673 41.0483 4.99577 41.0483 5.90723V11H39.5922L39.1889 9.96094H39.1342C38.9155 10.2344 38.6922 10.4577 38.4643 10.6309C38.2364 10.804 37.9744 10.9316 37.6782 11.0137C37.3819 11.0957 37.0219 11.1367 36.5981 11.1367C36.1469 11.1367 35.7413 11.0501 35.3813 10.877C35.0258 10.7038 34.7455 10.4395 34.5405 10.084C34.3354 9.72396 34.2328 9.26823 34.2328 8.7168C34.2328 7.9056 34.5177 7.30859 35.0873 6.92578C35.657 6.53841 36.5115 6.32422 37.6508 6.2832L38.977 6.24219V5.90723C38.977 5.50618 38.8722 5.21224 38.6625 5.02539C38.4529 4.83854 38.1612 4.74512 37.7875 4.74512C37.4184 4.74512 37.0561 4.79753 36.7006 4.90234C36.3452 5.00716 35.9897 5.13932 35.6342 5.29883L34.9438 3.89062C35.3494 3.67643 35.8028 3.50781 36.3041 3.38477C36.81 3.26172 37.3318 3.2002 37.8696 3.2002ZM38.977 7.45898L38.1703 7.48633C37.4959 7.50456 37.0265 7.62533 36.7621 7.84863C36.5024 8.07194 36.3725 8.36589 36.3725 8.73047C36.3725 9.04948 36.4659 9.27734 36.6528 9.41406C36.8396 9.54622 37.0834 9.6123 37.3842 9.6123C37.8308 9.6123 38.2068 9.48014 38.5121 9.21582C38.822 8.9515 38.977 8.57552 38.977 8.08789V7.45898Z" fill="#828282"/>
</svg>
